<svg fill="none" xmlns="http://www.w3.org/2000/svg" viewBox="0 0 512 512">
  <style>
    @media (prefers-color-scheme: dark) {
      path { fill: #fcfcfc; }
    }
  </style>
  <path d="M423.823 195.618v162.809c0 4.499.281 8.435.843 11.81 1.125 3.374 2.812 6.186 5.062 8.435 1.687 1.687 3.936 3.093 6.748 4.218 3.374.562 7.03.844 10.967.844h25.306v90.261c0 2.812-.843 5.062-2.53 6.749-1.687 1.687-3.937 2.53-6.749 2.53H413.7c-15.747 0-29.806-2.53-42.178-7.592-12.373-5.061-23.339-12.091-32.9-21.089-9.56-9.56-16.871-20.808-21.932-33.743-5.062-12.934-7.592-27.556-7.592-43.865V189.713c0-16.309-2.812-28.962-8.436-37.96-5.624-9.561-14.903-16.309-27.838-20.246-12.372-3.936-29.243-5.905-50.614-5.905-15.746 0-31.212.844-46.396 2.531a591.201 591.201 0 0 0-43.865 6.748c-14.06 2.812-28.4 6.749-43.022 11.81H72.899V56.429c0-2.249.281-3.936.844-5.06.562-1.125 1.124-1.969 1.687-2.531 3.374-3.375 12.653-7.311 27.837-11.81 15.747-4.5 34.305-8.155 55.676-10.967C180.313 22.687 201.402 21 222.21 21c35.43 0 65.798 3.374 91.105 10.123 25.307 6.186 46.115 16.309 62.424 30.368 16.309 14.06 28.4 32.337 36.274 54.832 7.873 21.933 11.81 48.364 11.81 79.295ZM153.881 355.052c0 11.81 3.094 20.808 9.28 26.994 6.748 5.624 16.871 8.436 30.368 8.436 15.184 0 30.087-1.687 44.709-5.061 14.622-3.375 28.962-8.998 43.022-16.872 14.622-7.873 29.244-17.996 43.865-30.368v72.547h-25.307c-7.31 16.871-17.714 31.493-31.212 43.865-12.934 11.81-28.118 21.089-45.552 27.838-17.434 6.186-36.555 9.279-57.363 9.279-25.869 0-48.364-5.061-67.485-15.184-18.558-10.123-32.899-24.182-43.022-42.178C45.061 415.789 40 394.419 40 370.237v-29.525c0-18.559 3.093-35.149 9.28-49.771 6.185-14.622 14.902-27.275 26.15-37.96 11.81-10.685 25.869-18.84 42.178-24.464 16.309-6.186 34.586-9.279 54.832-9.279h160.277c5.062 0 8.717 4.499 10.967 13.497 2.812 8.998 4.499 19.121 5.061 30.369.563 10.685.844 19.683.844 26.994h-156.06c-6.748 0-12.653.843-17.715 2.53-4.499 1.688-8.436 4.218-11.81 7.592-2.812 3.375-5.342 7.311-7.592 11.81-1.687 3.937-2.531 8.436-2.531 13.497v29.525Z" fill="#030303"/>
</svg>