<svg viewBox="0 0 512 512" fill="none" xmlns="http://www.w3.org/2000/svg"><style>
    @media (prefers-color-scheme: dark) {
      path { fill: #fcfcfc; }
    }
  </style><path d="M401.49 203.355v141.119c0 3.899.244 7.311.732 10.236.978 2.925 2.444 5.362 4.399 7.311 1.465 1.463 3.419 2.681 5.863 3.656 2.931.488 6.108.732 9.529.732H444v78.236c0 2.437-.732 4.388-2.198 5.85-1.466 1.462-3.421 2.193-5.864 2.193h-43.244c-13.682 0-25.897-2.193-36.646-6.581-10.751-4.386-20.279-10.48-28.586-18.279-8.306-8.286-14.659-18.036-19.056-29.248-4.398-11.211-6.596-23.885-6.596-38.021V198.236c0-14.136-2.444-25.103-7.33-32.902-4.887-8.288-12.949-14.137-24.188-17.549-10.749-3.412-25.408-5.119-43.976-5.119-13.681 0-27.119.732-40.312 2.194a514.757 514.757 0 0 0-38.113 5.849c-12.216 2.438-24.676 5.85-37.38 10.237H96.585V82.709c0-1.95.244-3.412.733-4.386.488-.975.977-1.707 1.466-2.194 2.931-2.925 10.994-6.337 24.186-10.236 13.682-3.9 29.807-7.069 48.375-9.506C189.913 53.462 208.236 52 226.316 52c30.784 0 57.169 2.925 79.158 8.774 21.988 5.362 40.067 14.137 54.238 26.323 14.17 12.187 24.675 28.029 31.517 47.527 6.84 19.011 10.261 41.92 10.261 68.731ZM166.947 341.548c0 10.237 2.688 18.036 8.063 23.398 5.863 4.875 14.659 7.312 26.386 7.312 13.193 0 26.141-1.462 38.846-4.387 12.704-2.925 25.164-7.799 37.38-14.624 12.705-6.824 25.409-15.598 38.113-26.322v62.882h-21.989c-6.351 14.623-15.391 27.297-27.119 38.021-11.237 10.237-24.43 18.279-39.578 24.129-15.148 5.362-31.761 8.043-49.841 8.043-22.476 0-42.021-4.387-58.635-13.161-16.124-8.774-28.585-20.96-37.38-36.559C72.397 394.194 68 375.671 68 354.71v-25.591c0-16.087 2.687-30.467 8.063-43.141 5.374-12.674 12.948-23.641 22.72-32.902 10.262-9.262 22.477-16.331 36.648-21.205 14.17-5.362 30.05-8.043 47.641-8.043h139.259c4.398 0 7.574 3.9 9.529 11.699 2.443 7.799 3.909 16.573 4.397 26.323.49 9.261.734 17.061.734 23.398H201.396c-5.863 0-10.994.73-15.392 2.193-3.909 1.463-7.33 3.656-10.261 6.58-2.444 2.925-4.642 6.337-6.597 10.237-1.466 3.412-2.199 7.312-2.199 11.699v25.591Z" fill="#030303"/></svg>