<svg xmlns="http://www.w3.org/2000/svg" viewBox="0 0 246.691 131.35"><path style="fill:none;stroke:#3c3c3c;stroke-width:3;stroke-linecap:round;stroke-linejoin:round;stroke-miterlimit:10;stroke-dasharray:none;stroke-opacity:1" d="M2.15 942.602c-.266 12.489 2 24.94.852 37.436-.202 8.131-.398 16.272.112 24.404.059 12.69-.667 24.396.115 37.076 3.254 5.745 10.086 7.567 16.036 8.219 4.533-.076 9.076-.727 13.621-.042 6.801.762 13.94 1.439 20.783.708 8.331-.456 13.766-.105 22.085-.01 1.156-.126 5.573-.407 7.183-.446" transform="translate(0 -921.012)"/><path style="fill:none;stroke:#3c3c3c;stroke-width:3;stroke-linecap:round;stroke-linejoin:round;stroke-miterlimit:10;stroke-dasharray:none;stroke-opacity:1" d="M82.148 1049.962c14.288-.627 28.588-.22 42.877-.4 14.068-.774 28.234.978 42.253-.514 13.333-1.053 26.765.17 40.134-.53 7.185-.708 14.411.15 21.614-.454 6.815-.42 11.819-.144 13.133-6.037.326-4.802.548-9.614 1.219-14.387M243.378 1027.414c.463-7.013.678-14.025 1.436-21.02.71-10.611-.416-21.215-.704-31.825-.685-13.517-1.138-27.043-.926-40.578 1.616-7.343-4.432-12.834-11.597-10.974-8.162.541-16.346 1.04-24.497 1.465-5.942.91-11.983-.104-17.963.356-6.55-.447-13.147-1.645-19.65-.089-10.662.59-21.325-1.02-32.004-.406-8.558.072-17.101.905-25.64-.026a84.278 84.278 0 0 0-5.012.035M106.631 924.352c-8.31-.057-16.646-.039-24.887-1.219-11.574-.853-23.075 1.355-34.646 1.324-8.121.195-16.249-.013-24.36-.415-6.013-.315-12.015-1.237-18.038-1.14-3.804 1.824-2.947 6.86-3.002 10.363.087 2.952.224 5.903.385 8.853" transform="translate(0 -921.012)"/></svg>